<?xml version="1.0" encoding="UTF-8" standalone="no"?>
<!DOCTYPE svg PUBLIC "-//W3C//DTD SVG 1.1//EN"
 "http://www.w3.org/Graphics/SVG/1.1/DTD/svg11.dtd">
<!-- Generated by graphviz version 2.43.0 (0)
 -->
<!-- Title: %3 Pages: 1 -->
<svg width="158pt" height="322pt"
 viewBox="0.00 0.00 158.00 321.91" xmlns="http://www.w3.org/2000/svg" xmlns:xlink="http://www.w3.org/1999/xlink">
<g id="graph0" class="graph" transform="scale(1 1) rotate(0) translate(4 317.91)">
<title>%3</title>
<polygon fill="white" stroke="transparent" points="-4,4 -4,-317.91 154,-317.91 154,4 -4,4"/>
<g id="clust1" class="cluster">
<title>clustervillage (32)</title>
<path fill="none" stroke="black" d="M20,-8C20,-8 130,-8 130,-8 136,-8 142,-14 142,-20 142,-20 142,-198.95 142,-198.95 142,-204.95 136,-210.95 130,-210.95 130,-210.95 20,-210.95 20,-210.95 14,-210.95 8,-204.95 8,-198.95 8,-198.95 8,-20 8,-20 8,-14 14,-8 20,-8"/>
<text text-anchor="middle" x="93.5" y="-15.8" font-family="Times,serif" font-size="14.00">village (32)</text>
</g>
<!-- huguenot -->
<g id="node1" class="node">
<title>huguenot</title>
<ellipse fill="lightgrey" stroke="black" cx="75" cy="-165.48" rx="59.29" ry="37.45"/>
<text text-anchor="middle" x="75" y="-176.78" font-family="Times,serif" font-size="14.00">huguenot</text>
<text text-anchor="middle" x="75" y="-161.78" font-family="Times,serif" font-size="14.00">~</text>
<text text-anchor="middle" x="75" y="-146.78" font-family="Times,serif" font-size="14.00">Bernoulli</text>
</g>
<!-- huguenot_obs -->
<g id="node2" class="node">
<title>huguenot_obs</title>
<path fill="lightgrey" stroke="black" d="M121,-92C121,-92 29,-92 29,-92 23,-92 17,-86 17,-80 17,-80 17,-51 17,-51 17,-45 23,-39 29,-39 29,-39 121,-39 121,-39 127,-39 133,-45 133,-51 133,-51 133,-80 133,-80 133,-86 127,-92 121,-92"/>
<text text-anchor="middle" x="75" y="-76.8" font-family="Times,serif" font-size="14.00">huguenot_obs</text>
<text text-anchor="middle" x="75" y="-61.8" font-family="Times,serif" font-size="14.00">~</text>
<text text-anchor="middle" x="75" y="-46.8" font-family="Times,serif" font-size="14.00">Data</text>
</g>
<!-- huguenot&#45;&gt;huguenot_obs -->
<g id="edge1" class="edge">
<title>huguenot&#45;&gt;huguenot_obs</title>
<path fill="none" stroke="black" d="M75,-127.99C75,-119.58 75,-110.63 75,-102.25"/>
<polygon fill="black" stroke="black" points="78.5,-102.01 75,-92.01 71.5,-102.01 78.5,-102.01"/>
</g>
<!-- p_hug -->
<g id="node3" class="node">
<title>p_hug</title>
<ellipse fill="none" stroke="black" cx="75" cy="-276.43" rx="53.98" ry="37.45"/>
<text text-anchor="middle" x="75" y="-287.73" font-family="Times,serif" font-size="14.00">p_hug</text>
<text text-anchor="middle" x="75" y="-272.73" font-family="Times,serif" font-size="14.00">~</text>
<text text-anchor="middle" x="75" y="-257.73" font-family="Times,serif" font-size="14.00">Uniform</text>
</g>
<!-- p_hug&#45;&gt;huguenot -->
<g id="edge2" class="edge">
<title>p_hug&#45;&gt;huguenot</title>
<path fill="none" stroke="black" d="M75,-238.85C75,-230.67 75,-221.89 75,-213.37"/>
<polygon fill="black" stroke="black" points="78.5,-213.15 75,-203.15 71.5,-213.15 78.5,-213.15"/>
</g>
</g>
</svg>
